# xmcd CD database file
#
# Track frame offsets:
#	183
#	25305
#	57305
#	91890
#	119825
#	147620
#	169705
#	191668
#
# Disc length: 2905 seconds
#
# Revision: 0
# Processed by: cddbd v1.4PL0 Copyright (c) Steve Scherf et al.
# Submitted via: CDex 1.50Beta7
#
DISCID=750b5708
DTITLE=Ronnie Cuber - Cubism
DYEAR=1992
DGENRE=Jazz
TTITLE0=Arroz con pollo
TTITLE1=I ronic
TTITLE2=cubism
TTITLE3=cheetah
TTITLE4=no smokin
TTITLE5=in a sentimental mood
TTITLE6=barra-cuber
TTITLE7=ponta grossa
EXTD=YEAR: 1992
EXTT0=
EXTT1=
EXTT2=
EXTT3=
EXTT4=
EXTT5=
EXTT6=
EXTT7=
PLAYORDER=
